<svg width="24" height="24" viewBox="0 0 24 24" fill="none" xmlns="http://www.w3.org/2000/svg">
<path fill-rule="evenodd" clip-rule="evenodd" d="M12.8398 3.88152C12.609 3.63772 12.2961 3.50076 11.9697 3.50076C11.8082 3.50337 11.6486 3.53958 11.5003 3.60733C11.352 3.67508 11.2177 3.77304 11.1052 3.89562C10.9927 4.0182 10.9041 4.16299 10.8446 4.32173C10.7851 4.48046 10.7557 4.65004 10.7582 4.82076C10.7536 4.88066 10.7536 4.94086 10.7582 5.00076C9.70678 5.34988 8.78822 6.04441 8.13623 6.98326C7.48423 7.92212 7.13283 9.0563 7.13316 10.2208V12.8908C7.1297 14.2587 6.61621 15.5701 5.70395 16.5408C5.62563 16.6213 5.56347 16.7178 5.52119 16.8243C5.47891 16.9308 5.45737 17.0453 5.45787 17.1608C5.45661 17.2772 5.47723 17.3927 5.51853 17.5006C5.55983 17.6085 5.62098 17.7067 5.69845 17.7895C5.77592 17.8723 5.86816 17.938 5.96984 17.9828C6.07151 18.0277 6.1806 18.0508 6.29078 18.0508H17.696C17.8062 18.0508 17.9153 18.0277 18.017 17.9828C18.1187 17.938 18.2109 17.8723 18.2884 17.7895C18.3658 17.7067 18.427 17.6085 18.4683 17.5006C18.5096 17.3927 18.5302 17.2772 18.529 17.1608C18.5294 17.0453 18.5079 16.9308 18.4656 16.8243C18.4233 16.7178 18.3612 16.6213 18.2829 16.5408C17.3706 15.5701 16.8571 14.2587 16.8537 12.8908V10.0008C16.8604 9.31784 16.7393 8.64025 16.4973 8.00697C16.2553 7.37369 15.8971 6.79723 15.4434 6.31076C14.8274 5.65347 14.0508 5.1896 13.2002 4.97076C13.2094 4.91451 13.2094 4.85701 13.2002 4.80076C13.2002 4.45598 13.0706 4.12532 12.8398 3.88152ZM10.429 2.52114C10.8787 2.18228 11.4174 2.00034 11.9697 2.00076C12.5306 1.98696 13.0811 2.16155 13.5421 2.49939C14.003 2.83723 14.3506 3.3209 14.5347 3.88076C15.662 4.3996 16.621 5.25541 17.2937 6.3428C17.9663 7.4302 18.3234 8.70171 18.3207 10.0008V12.8508C18.3208 13.8216 18.6849 14.7529 19.3335 15.4408C19.6507 15.7731 19.8672 16.1975 19.9555 16.6601C20.0438 17.1227 20 17.6026 19.8296 18.0389C19.6592 18.4751 19.3698 18.8479 18.9983 19.11C18.6269 19.3721 18.19 19.5116 17.7434 19.5108H6.29078C5.84208 19.5168 5.40183 19.3816 5.02602 19.1226C4.6502 18.8635 4.35581 18.4922 4.18027 18.0559C4.00473 17.6196 3.95598 17.138 4.04022 16.6723C4.12446 16.2066 4.33788 15.7779 4.65335 15.4408C4.97746 15.102 5.23471 14.6986 5.41018 14.254C5.58565 13.8094 5.67585 13.3325 5.67556 12.8508V10.2208C5.68131 8.89672 6.03936 7.60108 6.70882 6.48178C7.37827 5.36247 8.33215 4.46463 9.46154 3.89076C9.64105 3.33886 9.9793 2.86001 10.429 2.52114ZM13.2003 21.2507C13.3254 21.023 13.3908 20.7641 13.3896 20.5007H10.5501C10.5489 20.7641 10.6143 21.023 10.7394 21.2507C10.8639 21.4792 11.0432 21.669 11.2592 21.801C11.4752 21.9329 11.7203 22.0024 11.9698 22.0024C12.2194 22.0024 12.4645 21.9329 12.6805 21.801C12.8965 21.669 13.0758 21.4792 13.2003 21.2507Z" fill="#4F4F4F"/>
</svg>
