<svg width="24" height="24" viewBox="0 0 24 24" fill="none" xmlns="http://www.w3.org/2000/svg">
<path fill-rule="evenodd" clip-rule="evenodd" d="M4.39999 3.5C4.39999 2.67157 5.07157 2 5.89999 2H8.40999C9.23842 2 9.90999 2.67157 9.90999 3.5V3.69995H8.99997C8.17154 3.69995 7.49997 4.37152 7.49997 5.19995V19.9C7.49997 20.6186 8.00532 21.2192 8.68003 21.3658C8.59244 21.3817 8.50219 21.39 8.40999 21.39H5.9C5.07157 21.39 4.39999 20.7184 4.39999 19.89V3.5ZM12.6793 4.28288C11.8623 4.42016 11.3151 5.19309 11.457 6.00927L13.9253 20.2048C13.9322 20.2441 13.9405 20.2827 13.9502 20.3207C13.7683 20.9443 13.1923 21.4 12.51 21.4H9.99997C9.17154 21.4 8.49997 20.7284 8.49997 19.9V5.69995C8.49997 4.87152 9.17154 4.19995 9.99997 4.19995H12.51C12.6404 4.19995 12.7669 4.2166 12.8876 4.24788L12.6793 4.28288ZM12.4142 6.6641C12.2746 5.84752 12.8234 5.07239 13.64 4.93281L16.0057 4.52844C16.8223 4.38886 17.5974 4.93768 17.737 5.75426L20.0523 19.2993C20.1919 20.1159 19.6431 20.891 18.8265 21.0306L16.4608 21.435C15.6442 21.5745 14.8691 21.0257 14.7295 20.2091L12.4142 6.6641Z" fill="#4F4F4F"/>
</svg>
