<svg width="24" height="24" viewBox="0 0 24 24" fill="none" xmlns="http://www.w3.org/2000/svg">
<path d="M19.9734 18.999L17.6373 5.61888C17.5762 5.25086 17.3611 4.91971 17.0383 4.69675C16.8784 4.59037 16.6972 4.5144 16.5053 4.47324C16.3133 4.43208 16.1144 4.42656 15.9201 4.457L13.4043 4.83507C13.296 4.85816 13.1918 4.89542 13.0948 4.94573C12.8303 4.69783 12.4731 4.55268 12.0965 4.53999H9.50083V4.35556C9.49297 3.99193 9.33036 3.64579 9.04822 3.39209C8.76607 3.13839 8.3871 2.99754 7.99335 3.00003H5.44759C5.05914 3.012 4.69095 3.16299 4.42082 3.42111C4.15069 3.67922 3.99978 4.02423 4 4.38323V19.4969C3.99999 19.8622 4.15639 20.2126 4.43507 20.4717C4.71376 20.7309 5.09209 20.8777 5.48752 20.8801H7.99335C8.25717 20.8785 8.51571 20.8116 8.7421 20.6865C8.96499 20.8113 9.22023 20.8782 9.48087 20.8801H12.0366C12.432 20.8777 12.8104 20.7309 13.0891 20.4717C13.3677 20.2126 13.5241 19.8622 13.5241 19.4969V14.2039L14.5225 19.8197C14.5484 20.0031 14.6149 20.1797 14.718 20.3384C14.821 20.497 14.9584 20.6344 15.1215 20.7418C15.3757 20.9076 15.6788 20.9977 15.99 21H16.2296L18.7554 20.6219C18.9516 20.5909 19.1391 20.524 19.307 20.4252C19.4749 20.3264 19.6198 20.1977 19.7332 20.0466C19.8466 19.8955 19.9263 19.725 19.9675 19.5451C20.0088 19.3652 20.0107 19.1796 19.9734 18.999ZM7.99335 19.4969H5.45757V4.38323H7.99335V19.4969ZM11.9867 19.4969H9.50083V5.95085H12.0366L11.9867 19.4969ZM11.9867 20.1885V19.4969V20.1885ZM15.98 19.5984L13.6439 6.22749L16.1597 5.84941L18.5158 19.2203L15.98 19.5984Z" fill="#4F4F4F"/>
</svg>
