<svg width="24" height="24" viewBox="0 0 24 24" fill="none" xmlns="http://www.w3.org/2000/svg">
<path fill-rule="evenodd" clip-rule="evenodd" d="M8.64655 3C8.271 3 7.96655 3.30445 7.96655 3.68V4.00049H6.26667C5.01482 4.00049 4 5.01531 4 6.26716V17.7338C4 18.9857 5.01482 20.0005 6.26667 20.0005H17.7333C18.9852 20.0005 20 18.9857 20 17.7338V6.26715C20 5.01531 18.9852 4.00049 17.7333 4.00049H16.1266V3.68C16.1266 3.30445 15.8222 3 15.4466 3C15.071 3 14.7666 3.30445 14.7666 3.68V4.00049H9.32655V3.68C9.32655 3.30445 9.02211 3 8.64655 3ZM7.96655 5.36049V6.85333C7.96655 7.22889 8.271 7.53333 8.64655 7.53333C9.02211 7.53333 9.32655 7.22889 9.32655 6.85333V5.36049H14.7666V6.85333C14.7666 7.22889 15.071 7.53333 15.4466 7.53333C15.8222 7.53333 16.1266 7.22889 16.1266 6.85333V5.36049H17.7333C18.2341 5.36049 18.64 5.76642 18.64 6.26715V8.63732H5.36V6.26716C5.36 5.76642 5.76593 5.36049 6.26667 5.36049H7.96655ZM5.36 9.77065V17.7338C5.36 18.2346 5.76593 18.6405 6.26667 18.6405H17.7333C18.2341 18.6405 18.64 18.2346 18.64 17.7338V9.77065H5.36Z" fill="#4F4F4F"/>
</svg>
