<svg width="24" height="24" viewBox="0 0 24 24" fill="none" xmlns="http://www.w3.org/2000/svg">
<path fill-rule="evenodd" clip-rule="evenodd" d="M16.4638 5.77665H16.0157V5.73444C16.0157 5.45452 15.9044 5.18607 15.7062 4.98814C15.508 4.79022 15.2392 4.67902 14.9589 4.67902H14.2403C14.0992 4.1947 13.8045 3.7692 13.4005 3.46643C12.9965 3.16367 12.5051 3 12 3C11.4949 3 11.0035 3.16367 10.5995 3.46643C10.1955 3.7692 9.90083 4.1947 9.75966 4.67902H9.04106C8.76079 4.67902 8.492 4.79022 8.29382 4.98814C8.09564 5.18607 7.9843 5.45452 7.9843 5.73444V5.77665H7.53623C6.86358 5.77665 6.21848 6.04352 5.74284 6.51855C5.26721 6.99358 5 7.63786 5 8.30966V18.467C5 19.1388 5.26721 19.7831 5.74284 20.2581C6.21848 20.7331 6.86358 21 7.53623 21H16.4638C17.1364 21 17.7815 20.7331 18.2572 20.2581C18.7328 19.7831 19 19.1388 19 18.467V8.28433C18.9933 7.61693 18.7232 6.97914 18.2482 6.50958C17.7733 6.04001 17.132 5.77662 16.4638 5.77665ZM9.25242 5.94552H10.3092C10.4767 5.94333 10.6367 5.87592 10.7551 5.75763C10.8735 5.63934 10.941 5.47954 10.9432 5.31227C10.9432 5.03236 11.0546 4.76391 11.2528 4.56598C11.4509 4.36805 11.7197 4.25685 12 4.25685C12.2803 4.25685 12.5491 4.36805 12.7472 4.56598C12.9454 4.76391 13.0568 5.03236 13.0568 5.31227C13.059 5.47954 13.1265 5.63934 13.2449 5.75763C13.3633 5.87592 13.5233 5.94333 13.6908 5.94552H14.7476V7.21202H9.25242V5.94552ZM17.7065 18.467C17.7076 18.6296 17.6765 18.7908 17.615 18.9413C17.5535 19.0919 17.4627 19.2288 17.348 19.3441C17.2333 19.4595 17.0968 19.5511 16.9465 19.6135C16.7962 19.676 16.635 19.7082 16.4722 19.7082H7.53623C7.37343 19.7082 7.21223 19.676 7.06192 19.6135C6.91162 19.5511 6.77517 19.4595 6.66045 19.3441C6.54572 19.2288 6.45498 19.0919 6.39345 18.9413C6.33192 18.7908 6.30082 18.6296 6.30193 18.467V8.28433C6.30082 8.12173 6.33192 7.96053 6.39345 7.80999C6.45498 7.65945 6.54572 7.52256 6.66045 7.40719C6.77517 7.29183 6.91162 7.20027 7.06192 7.13779C7.21223 7.07531 7.37343 7.04315 7.53623 7.04316H7.9843V7.84527C7.98649 8.01254 8.05399 8.17234 8.17243 8.29063C8.29087 8.40892 8.45088 8.47634 8.61836 8.47852H15.3816C15.5491 8.47634 15.7091 8.40892 15.8276 8.29063C15.946 8.17234 16.0135 8.01254 16.0157 7.84527V7.04316H16.4638C16.6266 7.04315 16.7878 7.07531 16.9381 7.13779C17.0884 7.20027 17.2248 7.29183 17.3396 7.40719C17.4543 7.52256 17.545 7.65945 17.6065 7.80999C17.6681 7.96053 17.6992 8.12173 17.6981 8.28433L17.7065 18.467ZM9.46365 11.4082H14.5361V12.6747H9.46365V11.4082ZM14.5361 15.2078H9.46365V16.4743H14.5361V15.2078Z" fill="#4F4F4F"/>
</svg>
