<svg width="24" height="24" viewBox="0 0 24 24" fill="none" xmlns="http://www.w3.org/2000/svg">
<path fill-rule="evenodd" clip-rule="evenodd" d="M13.7499 5.15215H14.9837C15.0885 5.14953 15.1903 5.18725 15.2683 5.25761C15.3464 5.32797 15.3948 5.42567 15.4037 5.53074V7.33564C15.4049 7.39187 15.3949 7.44777 15.3743 7.50007C15.3537 7.55236 15.3229 7.6 15.2838 7.64018C15.2447 7.68036 15.198 7.71227 15.1465 7.73406C15.0949 7.75585 15.0396 7.76706 14.9837 7.76705H9.01621C8.96031 7.76706 8.90497 7.75585 8.85344 7.73406C8.8019 7.71227 8.75521 7.68036 8.71609 7.64018C8.67697 7.6 8.64622 7.55236 8.62563 7.50007C8.60505 7.44777 8.59505 7.39187 8.59621 7.33564V5.57476C8.59502 5.51893 8.60507 5.46344 8.62575 5.41162C8.64643 5.35981 8.67733 5.31274 8.71657 5.27326C8.75581 5.23377 8.80259 5.20269 8.85408 5.18187C8.90558 5.16106 8.96073 5.15095 9.01621 5.15215H10.3375C10.279 4.89427 10.2791 4.62647 10.3377 4.36863C10.3962 4.11078 10.5118 3.86952 10.6757 3.66276C10.8396 3.45601 11.0477 3.28906 11.2845 3.17432C11.5214 3.05958 11.7808 3 12.0437 3C12.3066 3 12.566 3.05958 12.8029 3.17432C13.0397 3.28906 13.2478 3.45601 13.4117 3.66276C13.5756 3.86952 13.6912 4.11078 13.7497 4.36863C13.8083 4.62647 13.8084 4.89427 13.7499 5.15215ZM16.6812 7.24752V5.5835C17.3134 5.6365 17.9026 5.92661 18.3321 6.39629C18.7616 6.86596 19 7.4809 19 8.11916V18.4555C19.0023 19.1265 18.7402 19.771 18.2712 20.248C17.8021 20.7249 17.1643 20.9953 16.4975 21H7.50251C6.83568 20.9953 6.19788 20.7249 5.72882 20.248C5.25976 19.771 4.99768 19.1265 5.00002 18.4555V8.11916C5.00002 7.4809 5.23841 6.86596 5.66791 6.39629C6.09741 5.92661 6.68664 5.6365 7.31876 5.5835V7.24752C7.31856 7.70553 7.49571 8.14559 7.81262 8.47434C8.12954 8.80309 8.56129 8.99466 9.01626 9.0084H14.9837C15.4387 8.99466 15.8705 8.80309 16.1874 8.47434C16.5043 8.14559 16.6814 7.70553 16.6812 7.24752ZM10.0838 16.4305H13.9162C14.0857 16.4305 14.2481 16.3628 14.3679 16.2422C14.4877 16.1217 14.555 15.9582 14.555 15.7878C14.555 15.6173 14.4877 15.4538 14.3679 15.3333C14.2481 15.2128 14.0857 15.1451 13.9162 15.1451H10.0838C9.91435 15.1451 9.75188 15.2128 9.63209 15.3333C9.5123 15.4538 9.44501 15.6173 9.44501 15.7878C9.44501 15.9582 9.5123 16.1217 9.63209 16.2422C9.75188 16.3628 9.91435 16.4305 10.0838 16.4305ZM10.0838 12.5742H13.9162C14.0857 12.5742 14.2481 12.5065 14.3679 12.3859C14.4877 12.2654 14.555 12.1019 14.555 11.9315C14.555 11.761 14.4877 11.5975 14.3679 11.477C14.2481 11.3564 14.0857 11.2887 13.9162 11.2887H10.0838C9.91435 11.2887 9.75188 11.3564 9.63209 11.477C9.5123 11.5975 9.44501 11.761 9.44501 11.9315C9.44501 12.1019 9.5123 12.2654 9.63209 12.3859C9.75188 12.5065 9.91435 12.5742 10.0838 12.5742Z" fill="#4F4F4F"/>
</svg>
