<svg width="24" height="24" viewBox="0 0 24 24" fill="none" xmlns="http://www.w3.org/2000/svg">
<path fill-rule="evenodd" clip-rule="evenodd" d="M9.25791 20.8966C9.36013 20.953 9.47413 20.9842 9.59057 20.9875C9.68779 20.9849 9.78326 20.9607 9.87025 20.9167C9.95724 20.8728 10.0336 20.8101 10.0941 20.733L10.6245 20.0878C10.7936 19.8917 11.0043 19.7367 11.2409 19.6344C11.4776 19.5321 11.734 19.4852 11.9911 19.4972C12.2485 19.4832 12.5056 19.5291 12.7425 19.6316C12.9795 19.734 13.19 19.8901 13.3577 20.0878L13.8792 20.733C13.9814 20.8697 14.1314 20.9618 14.2984 20.9905C14.4655 21.0192 14.6372 20.9824 14.7783 20.8875L18.2847 18.8429C18.4242 18.764 18.5309 18.6371 18.5854 18.4852C18.6399 18.3334 18.6385 18.1668 18.5814 18.0159L18.2847 17.2344C18.2066 16.9899 18.1806 16.7315 18.2085 16.4762C18.2364 16.2209 18.3175 15.9744 18.4466 15.7531C18.5633 15.5224 18.7297 15.321 18.9335 15.1637C19.1373 15.0065 19.3734 14.8974 19.6244 14.8444L20.4335 14.7081C20.5923 14.6839 20.7372 14.6026 20.8413 14.479C20.9454 14.3554 21.0017 14.1979 21 14.0356V9.94623C21.0017 9.78392 20.9454 9.62644 20.8413 9.50284C20.7372 9.37925 20.5923 9.29788 20.4335 9.27376L19.6154 9.13745C19.3639 9.0857 19.1273 8.97706 18.9233 8.81967C18.7193 8.66228 18.5533 8.46024 18.4376 8.2287C18.3066 8.01313 18.225 7.77072 18.1985 7.51917C18.1721 7.26763 18.2015 7.01329 18.2847 6.77471L18.5724 5.9841C18.6302 5.83426 18.633 5.66845 18.5802 5.51673C18.5274 5.36501 18.4226 5.23744 18.2847 5.15714L14.7963 3.11247C14.6551 3.01763 14.4835 2.9808 14.3164 3.00951C14.1493 3.03822 13.9994 3.1303 13.8972 3.26695L13.3757 3.91216C13.2035 4.10922 12.9896 4.26463 12.75 4.36687C12.5103 4.46912 12.251 4.51559 11.9911 4.50285C11.7488 4.50321 11.5092 4.45061 11.2888 4.34866C11.0685 4.24671 10.8725 4.09781 10.7144 3.91216L10.193 3.26695C10.0895 3.13235 9.94041 3.04118 9.77443 3.01098C9.60845 2.98078 9.43729 3.01369 9.29387 3.10338L5.74248 5.11171C5.60525 5.19494 5.50127 5.32423 5.4487 5.47702C5.39612 5.62981 5.39827 5.7964 5.45477 5.94775L5.74248 6.72927C5.82688 6.97664 5.85454 7.24016 5.82339 7.49992C5.79224 7.75968 5.70309 8.00888 5.56266 8.2287C5.44952 8.4604 5.28533 8.66279 5.08271 8.82032C4.88009 8.97786 4.64444 9.08635 4.39385 9.13745L3.5667 9.27376C3.40867 9.29965 3.26492 9.38152 3.16114 9.50472C3.05737 9.62793 3.00034 9.78443 3.00027 9.94623V14.0356C2.99567 14.1992 3.04946 14.359 3.15181 14.4858C3.25416 14.6126 3.39823 14.6979 3.5577 14.7262L4.38486 14.8625C4.63981 14.9111 4.88028 15.0183 5.08764 15.1759C5.29501 15.3335 5.4637 15.5372 5.58065 15.7713C5.71323 15.9878 5.79653 16.2314 5.82452 16.4844C5.85251 16.7375 5.82449 16.9936 5.74248 17.2344L5.45477 18.0159C5.3945 18.1668 5.39044 18.3348 5.44334 18.4885C5.49625 18.6423 5.60254 18.7714 5.74248 18.8519L9.25791 20.8966ZM9.41974 19.4245L6.89331 17.9614L7.01019 17.716C7.16125 17.2774 7.21459 16.8105 7.16641 16.3487C7.11823 15.8868 6.96972 15.4414 6.73148 15.0443C6.51245 14.6436 6.20733 14.2977 5.83857 14.0319C5.46982 13.7661 5.0468 13.5873 4.60064 13.5085L4.3489 13.4631V10.5278L4.60963 10.4824C5.06025 10.3997 5.48663 10.2154 5.85709 9.94321C6.22755 9.67103 6.53256 9.31797 6.74946 8.91026C6.98407 8.51823 7.12922 8.07825 7.17432 7.62235C7.21943 7.16645 7.16336 6.70613 7.01019 6.2749L6.92028 6.03863L9.41974 4.57555L9.57259 4.77547C9.87028 5.12739 10.2418 5.40785 10.6601 5.59648C11.0785 5.78511 11.5332 5.87717 11.9911 5.86597C12.4481 5.87973 12.9023 5.78878 13.3196 5.59992C13.7369 5.41107 14.1065 5.12921 14.4007 4.77547L14.5625 4.57555L17.0799 6.06589L16.99 6.30216C16.8369 6.73339 16.7808 7.19371 16.8259 7.64961C16.871 8.10551 17.0162 8.5455 17.2508 8.93753C17.4708 9.33828 17.7761 9.6847 18.1445 9.95185C18.513 10.219 18.9355 10.4002 19.3816 10.4824L19.6333 10.5278V13.5449H19.3906C18.9449 13.6394 18.5239 13.8279 18.1551 14.0981C17.7864 14.3684 17.4783 14.7142 17.2509 15.1131C17.0234 15.5119 16.8818 15.9548 16.8354 16.4127C16.7889 16.8706 16.8385 17.3333 16.981 17.7705L17.071 17.9977L14.5625 19.4699L14.4007 19.27C14.1105 18.9084 13.7428 18.6183 13.3253 18.4215C12.9079 18.2247 12.4517 18.1264 11.9911 18.134C11.5332 18.1265 11.0796 18.2249 10.6651 18.4218C10.2506 18.6187 9.88609 18.9088 9.59956 19.27L9.41974 19.4245ZM12.7403 10.8666C12.5185 10.7168 12.2578 10.6369 11.991 10.6369C11.6334 10.6369 11.2903 10.7805 11.0374 11.0361C10.7845 11.2917 10.6424 11.6385 10.6424 12C10.6424 12.2696 10.7215 12.5331 10.8697 12.7573C11.0179 12.9815 11.2285 13.1562 11.475 13.2593C11.7214 13.3625 11.9925 13.3895 12.2542 13.3369C12.5158 13.2843 12.7561 13.1545 12.9447 12.9639C13.1333 12.7732 13.2617 12.5303 13.3138 12.2659C13.3658 12.0015 13.3391 11.7274 13.237 11.4783C13.1349 11.2293 12.9621 11.0164 12.7403 10.8666ZM10.4925 9.7332C10.9361 9.43363 11.4576 9.27374 11.991 9.27374C12.7064 9.27374 13.3925 9.56097 13.8983 10.0722C14.4041 10.5835 14.6883 11.2769 14.6883 12C14.6883 12.5392 14.5301 13.0663 14.2337 13.5146C13.9374 13.9629 13.5161 14.3124 13.0232 14.5187C12.5304 14.725 11.9881 14.779 11.4648 14.6738C10.9416 14.5686 10.461 14.309 10.0838 13.9277C9.70658 13.5464 9.4497 13.0607 9.34562 12.5318C9.24155 12.003 9.29496 11.4548 9.49911 10.9567C9.70326 10.4585 10.049 10.0328 10.4925 9.7332Z" fill="#4F4F4F"/>
</svg>
