<svg width="24" height="24" viewBox="0 0 24 24" fill="none" xmlns="http://www.w3.org/2000/svg">
<path d="M20.9551 12V9.94623C20.9569 9.78392 20.9006 9.62644 20.7966 9.50284C20.6927 9.37925 20.5481 9.29788 20.3895 9.27376L19.5725 9.13745C19.3214 9.0857 19.0852 8.97706 18.8815 8.81967C18.6778 8.66228 18.512 8.46024 18.3965 8.2287C18.2687 8.01172 18.1903 7.76862 18.167 7.5171C18.1437 7.26558 18.1761 7.01196 18.2618 6.77471L18.5491 5.9841C18.6068 5.83426 18.6096 5.66845 18.5569 5.51673C18.5042 5.36501 18.3995 5.23744 18.2618 5.15714L14.7606 3.11247C14.6197 3.01763 14.4483 2.9808 14.2815 3.00951C14.1146 3.03822 13.9649 3.1303 13.8628 3.26695L13.3421 3.91216C13.1721 4.10678 12.9615 4.26073 12.7255 4.36288C12.4895 4.46504 12.234 4.51284 11.9776 4.50285C11.7266 4.51126 11.4769 4.46256 11.2469 4.36033C11.017 4.2581 10.8126 4.10495 10.6489 3.91216L10.1282 3.26695C10.0249 3.13235 9.87603 3.04118 9.7103 3.01098C9.54456 2.98078 9.37365 3.01369 9.23045 3.10338L5.7382 5.14806C5.60116 5.23129 5.49735 5.36058 5.44484 5.51337C5.39234 5.66616 5.39449 5.83275 5.45092 5.9841L5.7382 6.76562C5.82247 7.01299 5.85009 7.27651 5.81899 7.53627C5.78788 7.79603 5.69886 8.04523 5.55865 8.26505C5.44567 8.49675 5.28172 8.69914 5.0794 8.85667C4.87708 9.01421 4.64178 9.1227 4.39157 9.1738L3.56564 9.27376C3.40785 9.29965 3.26431 9.38152 3.16069 9.50472C3.05707 9.62793 3.00013 9.78443 3.00006 9.94623V14.0356C2.99798 14.199 3.05394 14.3576 3.15775 14.4827C3.26157 14.6078 3.40632 14.691 3.56564 14.7171L4.38259 14.8535C4.63716 14.902 4.87727 15.0092 5.08433 15.1668C5.29138 15.3244 5.45982 15.5281 5.5766 15.7622C5.70899 15.9787 5.79217 16.2223 5.82011 16.4753C5.84806 16.7284 5.82008 16.9845 5.7382 17.2253L5.45092 18.0068C5.39073 18.1578 5.38667 18.3257 5.4395 18.4794C5.49233 18.6332 5.59846 18.7623 5.7382 18.8429L9.28431 20.8966C9.38639 20.953 9.50022 20.9842 9.61648 20.9875C9.7166 20.9875 9.81544 20.9647 9.90561 20.9206C9.99577 20.8766 10.0749 20.8124 10.1372 20.733L10.6668 20.0878C10.8298 19.8989 11.0315 19.7482 11.2579 19.6462C11.4842 19.5442 11.7298 19.4933 11.9776 19.4972C12.2286 19.4887 12.4783 19.5374 12.7082 19.6397C12.9382 19.7419 13.1425 19.895 13.3062 20.0878L13.8269 20.733C13.929 20.8697 14.0787 20.9618 14.2455 20.9905C14.4124 21.0192 14.5838 20.9824 14.7247 20.8875L18.2618 18.8429C18.4011 18.764 18.5077 18.6371 18.5621 18.4852C18.6165 18.3334 18.615 18.1668 18.5581 18.0159L18.2618 17.2344C18.1824 16.9827 18.1581 16.7166 18.1907 16.4545C18.2232 16.1924 18.3119 15.9407 18.4503 15.7168C18.5669 15.486 18.7331 15.2846 18.9366 15.1274C19.1401 14.9701 19.3758 14.861 19.6264 14.808L20.4344 14.6717C20.593 14.6476 20.7376 14.5662 20.8415 14.4426C20.9455 14.319 21.0017 14.1616 21 13.9992L20.9551 12ZM11.9776 14.7262C11.4449 14.7262 10.9242 14.5663 10.4813 14.2668C10.0384 13.9672 9.69317 13.5414 9.48932 13.0433C9.28548 12.5451 9.23214 11.997 9.33606 11.4681C9.43998 10.9393 9.69649 10.4535 10.0731 10.0723C10.4498 9.69099 10.9297 9.43134 11.4521 9.32615C11.9746 9.22095 12.5161 9.27494 13.0082 9.48128C13.5004 9.68763 13.921 10.0371 14.2169 10.4854C14.5129 10.9337 14.6708 11.4608 14.6708 12C14.6708 12.723 14.3871 13.4165 13.882 13.9277C13.3769 14.439 12.6919 14.7262 11.9776 14.7262Z" fill="#4F4F4F"/>
</svg>
