<svg width="24" height="24" viewBox="0 0 24 24" fill="none" xmlns="http://www.w3.org/2000/svg">
<path fill-rule="evenodd" clip-rule="evenodd" d="M6.16667 5H10.8333C11.1428 5 11.4395 5.10536 11.6583 5.29289C11.8771 5.48043 12 5.73478 12 6C12 6.26522 11.8771 6.51957 11.6583 6.70711C11.4395 6.89464 11.1428 7 10.8333 7H6.16667C5.85725 7 5.5605 6.89464 5.34171 6.70711C5.12292 6.51957 5 6.26522 5 6C5 5.73478 5.12292 5.48043 5.34171 5.29289C5.5605 5.10536 5.85725 5 6.16667 5ZM18.6583 11.2929C18.4395 11.1054 18.1428 11 17.8333 11H6.16667C5.85725 11 5.5605 11.1054 5.34171 11.2929C5.12292 11.4804 5 11.7348 5 12C5 12.2652 5.12292 12.5196 5.34171 12.7071C5.5605 12.8946 5.85725 13 6.16667 13H17.8333C18.1428 13 18.4395 12.8946 18.6583 12.7071C18.8771 12.5196 19 12.2652 19 12C19 11.7348 18.8771 11.4804 18.6583 11.2929ZM15.0833 17H5.91667C5.67355 17 5.44039 17.1054 5.26849 17.2929C5.09658 17.4804 5 17.7348 5 18C5 18.2652 5.09658 18.5196 5.26849 18.7071C5.44039 18.8946 5.67355 19 5.91667 19H15.0833C15.3264 19 15.5596 18.8946 15.7315 18.7071C15.9034 18.5196 16 18.2652 16 18C16 17.7348 15.9034 17.4804 15.7315 17.2929C15.5596 17.1054 15.3264 17 15.0833 17Z" fill="#4F4F4F"/>
</svg>
