<svg width="24" height="24" viewBox="0 0 24 24" fill="none" xmlns="http://www.w3.org/2000/svg">
<path d="M19.8158 10.2007C19.7906 10.1709 19.7609 10.1455 19.7278 10.1256L18.7038 9.20661L18.6318 9.13978L18.4798 9.02282L13.4079 4.54507C13.0161 4.19338 12.5166 4 11.9999 4C11.4833 4 10.9838 4.19338 10.592 4.54507L5.52003 9.02282L5.36803 9.13978L5.29603 9.20661L4.27204 10.1256L4.18405 10.2007C4.12493 10.2601 4.0781 10.3315 4.04645 10.4106C4.0148 10.4896 3.99901 10.5746 4.00005 10.6602C4.00115 10.7879 4.03724 10.9125 4.10405 11.0194L4.19205 11.128C4.30712 11.2403 4.45857 11.303 4.61604 11.3035C4.74075 11.3021 4.86263 11.2645 4.96803 11.1949L5.05603 11.1447L5.29603 10.9359V18.513C5.29602 18.9037 5.44411 19.2785 5.70793 19.5556C5.97175 19.8327 6.32986 19.9894 6.70401 19.9916H9.47997C9.85413 19.9894 10.2122 19.8327 10.4761 19.5556C10.7399 19.2785 10.888 18.9037 10.888 18.513V15.1714C10.888 15.1271 10.9048 15.0846 10.9348 15.0532C10.9648 15.0219 11.0055 15.0043 11.0479 15.0043H12.9519C12.9951 15.0064 13.0358 15.0259 13.0656 15.0585C13.0954 15.0912 13.112 15.1346 13.1119 15.1797V18.5213C13.1119 18.9106 13.2589 19.2842 13.521 19.561C13.7831 19.8379 14.1391 19.9956 14.5119 20H17.3039C17.6766 19.9956 18.0327 19.8379 18.2948 19.561C18.5569 19.2842 18.7039 18.9106 18.7038 18.5213V10.9108L18.9438 11.1197L19.0318 11.1949C19.1372 11.2645 19.2591 11.3021 19.3838 11.3035C19.5413 11.303 19.6928 11.2403 19.8078 11.128L19.8958 11.0194C19.9626 10.9125 19.9987 10.7879 19.9998 10.6602C20.0018 10.5744 19.9865 10.4891 19.9548 10.41C19.9231 10.3308 19.8757 10.2595 19.8158 10.2007ZM17.4639 18.4879C17.4649 18.511 17.4616 18.534 17.4542 18.5557C17.4467 18.5774 17.4352 18.5974 17.4204 18.6145C17.4055 18.6315 17.3876 18.6454 17.3676 18.6552C17.3476 18.665 17.3259 18.6706 17.3039 18.6717H14.5119C14.4681 18.6675 14.4273 18.6463 14.3977 18.6123C14.3681 18.5783 14.3517 18.5339 14.3519 18.4879V15.1463C14.353 14.9536 14.3175 14.7626 14.2476 14.5843C14.1778 14.4059 14.0748 14.2438 13.9447 14.1072C13.8146 13.9705 13.6599 13.8621 13.4895 13.7881C13.3191 13.7141 13.1364 13.676 12.9519 13.676H11.0479C10.8627 13.676 10.6794 13.7144 10.5085 13.7889C10.3376 13.8634 10.1825 13.9726 10.0523 14.1101C9.9221 14.2476 9.81932 14.4108 9.74991 14.5901C9.6805 14.7694 9.64585 14.9613 9.64797 15.1547V18.4963C9.64802 18.5436 9.63058 18.5891 9.59928 18.6234C9.56799 18.6576 9.52525 18.6779 9.47997 18.6801H6.70401C6.68126 18.6801 6.65874 18.6753 6.63782 18.666C6.6169 18.6566 6.59801 18.643 6.5823 18.6258C6.56659 18.6086 6.55439 18.5882 6.54643 18.566C6.53847 18.5437 6.53493 18.52 6.53601 18.4963V9.81645L11.3919 5.52249C11.5621 5.37286 11.7775 5.2908 11.9999 5.2908C12.2224 5.2908 12.4377 5.37286 12.6079 5.52249L17.4639 9.81645V18.4879Z" fill="#4F4F4F"/>
</svg>
