<svg width="24" height="24" viewBox="0 0 24 24" fill="none" xmlns="http://www.w3.org/2000/svg">
<path d="M19.814 10.5987L18.3387 9.22353L18.2528 9.15434L18.1123 9.03326L13.3349 4.54451C12.9654 4.19316 12.4947 4 12.0078 4C11.5209 4 11.0502 4.19316 10.6807 4.54451L5.88772 9.03326L5.76282 9.15434L5.69256 9.22353L4.20157 10.5987C4.14314 10.6555 4.09538 10.7245 4.06101 10.8017C4.02664 10.879 4.00634 10.9629 4.00126 11.0489C3.99619 11.1348 4.00644 11.221 4.03143 11.3026C4.05643 11.3841 4.09567 11.4594 4.14693 11.5241C4.19819 11.5889 4.26045 11.6418 4.33017 11.6799C4.39988 11.7179 4.47568 11.7404 4.55325 11.7461C4.63081 11.7517 4.70861 11.7403 4.78221 11.7126C4.85581 11.6849 4.92376 11.6415 4.9822 11.5847L5.69256 10.9274V18.521C5.69256 18.9118 5.83212 19.2867 6.08077 19.5638C6.32942 19.8409 6.66695 19.9977 7.01962 20H9.66594C10.0186 19.9977 10.3561 19.8409 10.6048 19.5638C10.8534 19.2867 10.993 18.9118 10.993 18.521V15.1826C10.993 15.1367 11.0094 15.0927 11.0387 15.0603C11.068 15.0278 11.1077 15.0096 11.1491 15.0096H12.9446C12.9867 15.0118 13.0264 15.032 13.0555 15.0658C13.0845 15.0996 13.1007 15.1445 13.1007 15.1912V18.521C13.1 18.8974 13.2288 19.2598 13.4608 19.5346C13.6929 19.8094 14.0107 19.9758 14.3497 20H16.9882C17.3395 19.9954 17.675 19.8376 17.922 19.5608C18.169 19.2839 18.3075 18.9103 18.3074 18.521V10.9274L19.0178 11.5847C19.1358 11.6994 19.2901 11.7574 19.4468 11.7461C19.6034 11.7347 19.7496 11.6549 19.8531 11.5241C19.9566 11.3934 20.009 11.2224 19.9987 11.0489C19.9885 10.8753 19.9164 10.7134 19.7984 10.5987H19.814Z" fill="#4F4F4F"/>
</svg>
