<svg width="24" height="24" viewBox="0 0 24 24" fill="none" xmlns="http://www.w3.org/2000/svg">
<path fill-rule="evenodd" clip-rule="evenodd" d="M6.60003 11.1133C6.60003 8.62063 8.62078 6.59988 11.1135 6.59988C13.6062 6.59988 15.627 8.62063 15.627 11.1133C15.627 12.3462 15.1327 13.4636 14.3314 14.2782C14.3223 14.2866 14.3132 14.2952 14.3043 14.3041C14.2955 14.313 14.2868 14.322 14.2784 14.3312C13.4638 15.1325 12.3464 15.6268 11.1135 15.6268C8.62078 15.6268 6.60003 13.6061 6.60003 11.1133ZM14.8338 15.9649C13.8032 16.7563 12.5133 17.2268 11.1135 17.2268C7.73712 17.2268 5.00003 14.4897 5.00003 11.1133C5.00003 7.73697 7.73712 4.99988 11.1135 4.99988C14.4899 4.99988 17.227 7.73697 17.227 11.1133C17.227 12.5131 16.7565 13.803 15.9652 14.8335L18.7637 17.6321C19.0761 17.9445 19.0761 18.451 18.7637 18.7634C18.4513 19.0759 17.9448 19.0759 17.6323 18.7634L14.8338 15.9649Z" fill="#4F4F4F"/>
</svg>
