<svg width="40" height="15" viewBox="0 0 40 15" fill="none" xmlns="http://www.w3.org/2000/svg">
<path d="M5.27157 7.19257L4.91418 8.5328H8.01905L7.68399 7.19257C7.47551 6.46289 7.27447 5.68853 7.08088 4.8695C6.88729 4.05047 6.69371 3.26123 6.50012 2.50176H6.41077C6.23207 3.27612 6.04593 4.07281 5.85234 4.89184C5.67364 5.69598 5.48005 6.46289 5.27157 7.19257ZM0 14.5638L4.55678 0H8.51046L13.0672 14.5638H9.58265L8.68916 11.1016H4.24406L3.35058 14.5638H0Z" fill="#32AB54"/>
<path d="M14.6586 14.5638V0H17.9422V11.794H23.7052V14.5638H14.6586Z" fill="#32AB54"/>
<path d="M26.2198 14.5638V0H29.8161L32.1615 6.47778C32.3104 6.90963 32.4519 7.35638 32.5859 7.81801C32.7199 8.26476 32.8614 8.7115 33.0103 9.15824H33.0997C33.2486 8.7115 33.3826 8.26476 33.5018 7.81801C33.6358 7.35638 33.7772 6.90963 33.9262 6.47778L36.2269 0H39.8008V14.5638H36.8077V9.22525C36.8077 8.86786 36.8225 8.47324 36.8523 8.04138C36.8821 7.60953 36.9193 7.17768 36.964 6.74583C37.0087 6.29908 37.0534 5.86723 37.098 5.45027C37.1427 5.01842 37.1874 4.6238 37.2321 4.2664H37.1427L35.9588 7.72866L33.8815 13.2906H32.0722L29.9948 7.72866L28.8333 4.2664H28.7439C28.7886 4.6238 28.8333 5.01842 28.878 5.45027C28.9226 5.86723 28.9673 6.29908 29.012 6.74583C29.0567 7.17768 29.0939 7.60953 29.1237 8.04138C29.1534 8.47324 29.1683 8.86786 29.1683 9.22525V14.5638H26.2198Z" fill="#32AB54"/>
</svg>
